# xmcd
#
# Track frame offsets:
#   150
#   14875
#   25974
#   39168
#   49634
#
# Disc length: 836 seconds
#
# Revision: 0
# Processed by: cddbd v1.5.1PL2 Copyright (c) Steve Scherf et al.
# Submitted via: GXTranscoder 2.0.1939
#
DISCID=37034205
DTITLE=No Recess - No Recess
DYEAR=2005
DGENRE=Children's Music
TTITLE0=Judgement
TTITLE1=This is the Reason
TTITLE2=Wasted Memories
TTITLE3=Opportunity
TTITLE4=Guns Kill People
EXTD=
EXTT0=
EXTT1=
EXTT2=
EXTT3=
EXTT4=
PLAYORDER=
